<svg width="27" height="26" viewBox="0 0 27 26" fill="none" xmlns="http://www.w3.org/2000/svg">
<path d="M24.8889 10.1111H18.6666C18.2541 10.1111 17.8584 10.275 17.5667 10.5667C17.275 10.8584 17.1111 11.2541 17.1111 11.6666V23.3333C17.1111 23.7459 17.275 24.1415 17.5667 24.4333C17.8584 24.725 18.2541 24.8889 18.6666 24.8889H24.8889C25.3014 24.8889 25.6971 24.725 25.9888 24.4333C26.2805 24.1415 26.4444 23.7459 26.4444 23.3333V11.6666C26.4444 11.2541 26.2805 10.8584 25.9888 10.5667C25.6971 10.275 25.3014 10.1111 24.8889 10.1111ZM24.8889 11.6666V20.2222H18.6666V11.6666H24.8889ZM18.6666 23.3333V21.4666H24.8889V23.3333H18.6666Z" fill="#1DB954"/>
<path d="M15.5557 17.1111H3.11122V4.66664H21.7779V8.55553H23.3334V4.66664C23.3334 4.25408 23.1695 3.85842 22.8778 3.5667C22.5861 3.27497 22.1904 3.11108 21.7779 3.11108H3.11122C2.69866 3.11108 2.303 3.27497 2.01128 3.5667C1.71955 3.85842 1.55566 4.25408 1.55566 4.66664V17.1111C1.55566 17.5236 1.71955 17.9193 2.01128 18.211C2.303 18.5028 2.69866 18.6666 3.11122 18.6666H15.5557V17.1111Z" fill="#1DB954"/>
<path d="M15.5555 20.2222H6.99995C6.79367 20.2222 6.59584 20.3041 6.44997 20.45C6.30411 20.5958 6.22217 20.7937 6.22217 20.9999C6.22217 21.2062 6.30411 21.4041 6.44997 21.5499C6.59584 21.6958 6.79367 21.7777 6.99995 21.7777H15.5555V20.2222Z" fill="#1DB954"/>
</svg>
