<svg width="22" height="24" viewBox="0 0 22 24" fill="none" xmlns="http://www.w3.org/2000/svg">
<path d="M13.7777 10.8999H19.8888V18.9999C19.8888 21.209 18.098 22.9999 15.8888 22.9999H6.11104C3.9019 22.9999 2.11104 21.209 2.11104 18.9999V10.8999H8.22215" stroke="#E5E5E5" stroke-width="1.5"/>
<path d="M15.9999 10.8999H19.4999C20.3284 10.8999 20.9999 10.2283 20.9999 9.3999V6.8999C20.9999 6.07148 20.3284 5.3999 19.4999 5.3999H2.49992C1.6715 5.3999 0.999924 6.07148 0.999924 6.8999V9.3999C0.999924 10.2283 1.6715 10.8999 2.49992 10.8999H5.99992" stroke="#E5E5E5" stroke-width="1.5"/>
<path d="M10.9999 3.77778C10.9999 2.24365 12.2436 1 13.7777 1H14.3555C15.5705 1 16.5555 1.98497 16.5555 3.2V3.2C16.5555 4.41503 15.5705 5.4 14.3555 5.4H10.9999V3.77778Z" stroke="#E5E5E5" stroke-width="1.5"/>
<path d="M10.9999 3.77778C10.9999 2.24365 9.75627 1 8.22215 1H7.64437C6.42934 1 5.44437 1.98497 5.44437 3.2V3.2C5.44437 4.41503 6.42934 5.4 7.64437 5.4H10.9999V3.77778Z" stroke="#E5E5E5" stroke-width="1.5"/>
<path d="M13.7777 5.3999L13.7777 22.9999L8.22215 22.9999L8.22215 5.3999L13.7777 5.3999Z" stroke="#E5E5E5" stroke-width="1.5"/>
</svg>
