<svg width="22" height="22" viewBox="0 0 22 22" fill="none" xmlns="http://www.w3.org/2000/svg">
<path fill-rule="evenodd" clip-rule="evenodd" d="M9.53407 5.65C9.53407 6.28526 10.0293 6.8 10.6404 6.8C11.2516 6.8 11.7468 6.28526 11.7468 5.65C11.7468 5.01474 11.2516 4.5 10.6404 4.5C10.0293 4.5 9.53407 5.01474 9.53407 5.65ZM9.09152 15.54V16H12.6319V15.54H11.7468V8.64V8.18H9.97662H9.09152V8.64H9.97662V15.54H9.09152ZM10.8617 20.5C15.9093 20.5 20.0013 16.2467 20.0013 11C20.0013 5.75329 15.9093 1.5 10.8617 1.5C5.81406 1.5 1.72214 5.75329 1.72214 11C1.72214 16.2467 5.81406 20.5 10.8617 20.5ZM10.8617 22C5.01707 22 0.279053 17.0751 0.279053 11C0.279053 4.92487 5.01707 0 10.8617 0C16.7063 0 21.4444 4.92487 21.4444 11C21.4444 17.0751 16.7063 22 10.8617 22Z" fill="#0A84FF"/>
</svg>
