<svg width="22" height="15" viewBox="0 0 22 15" fill="none" xmlns="http://www.w3.org/2000/svg">
<path fill-rule="evenodd" clip-rule="evenodd" d="M3 1.88064C3 2.61806 2.44036 3.21586 1.75 3.21586C1.05964 3.21586 0.5 2.61806 0.5 1.88064C0.5 1.14321 1.05964 0.54541 1.75 0.54541C2.44036 0.54541 3 1.14321 3 1.88064ZM5.80114 1.0795C5.35868 1.0795 5 1.43818 5 1.88064C5 2.32309 5.35868 2.68177 5.80114 2.68177H20.6989C21.1413 2.68177 21.5 2.32309 21.5 1.88064C21.5 1.43818 21.1413 1.0795 20.6989 1.0795H5.80114ZM1.75 9.09086C2.44036 9.09086 3 8.49306 3 7.75564C3 7.01821 2.44036 6.42041 1.75 6.42041C1.05964 6.42041 0.5 7.01821 0.5 7.75564C0.5 8.49306 1.05964 9.09086 1.75 9.09086ZM5.80114 6.9545C5.35868 6.9545 5 7.31318 5 7.75564C5 8.19809 5.35868 8.55677 5.80114 8.55677H20.6989C21.1413 8.55677 21.5 8.19809 21.5 7.75564C21.5 7.31318 21.1413 6.9545 20.6989 6.9545H5.80114ZM5 13.6306C5 13.1882 5.35868 12.8295 5.80114 12.8295H20.6989C21.1413 12.8295 21.5 13.1882 21.5 13.6306C21.5 14.0731 21.1413 14.4318 20.6989 14.4318H5.80114C5.35868 14.4318 5 14.0731 5 13.6306ZM3 13.6306C3 14.3681 2.44036 14.9659 1.75 14.9659C1.05964 14.9659 0.5 14.3681 0.5 13.6306C0.5 12.8932 1.05964 12.2954 1.75 12.2954C2.44036 12.2954 3 12.8932 3 13.6306Z" fill="#0A84FF"/>
</svg>
