<svg width="28" height="28" viewBox="0 0 28 28" fill="none" xmlns="http://www.w3.org/2000/svg">
<path d="M15.1524 15.1392C15.0462 15.1391 14.9436 15.1776 14.8637 15.2477L4.96131 23.9294L5.53881 24.5874L15.4412 15.9065C15.5085 15.8479 15.5562 15.7702 15.578 15.6837C15.5998 15.5972 15.5947 15.5061 15.5633 15.4226C15.5319 15.3391 15.4757 15.2672 15.4022 15.2165C15.3288 15.1659 15.2416 15.1389 15.1524 15.1392Z" fill="#EEEEEE"/>
<path d="M19.0855 0C13.7113 0 10.5 4.22625 10.5 8.3125C10.5 9.49025 10.7817 10.7879 11.1982 11.6305L7.2415 13.6089C7.16892 13.6452 7.10789 13.7011 7.06524 13.7702C7.02259 13.8392 7 13.9188 7 14L7 17.5H4.375L4.27612 17.5052C3.69337 17.5446 3.51925 17.7301 3.5 18.375V21.875H0.875C0.762125 21.875 0.68425 21.8628 0.63175 21.8549C0.525875 21.8383 0.328125 21.8076 0.156626 21.9616C-0.0201244 22.1191 -0.0122509 22.3186 -0.00525093 22.4945C-0.00349998 22.5575 0 22.6406 0 22.75V26.7146C0.000232697 27.0555 0.135731 27.3823 0.376734 27.6233C0.617739 27.8643 0.944544 27.9998 1.28538 28H4.676C4.98775 27.9993 5.2888 27.8863 5.52387 27.6815L17.0625 17.5665C17.6304 17.6803 18.4887 17.8281 19.0864 17.8281C24.0012 17.8281 28 13.8294 28 8.9145C28 3.99962 24.0013 0 19.0855 0ZM19.0855 16.9531C18.6471 16.9531 17.8964 16.8481 17.0258 16.6661C16.9594 16.6518 16.8906 16.6533 16.825 16.6705C16.7593 16.6877 16.6986 16.7201 16.6477 16.765L4.94813 27.0217C4.87287 27.0879 4.7762 27.1246 4.676 27.125H1.28538C1.05875 27.125 0.875 26.9412 0.875 26.7146V22.75H3.9375C4.05353 22.75 4.16481 22.7039 4.24686 22.6219C4.32891 22.5398 4.375 22.4285 4.375 22.3125V18.375H7.4375C7.55353 18.375 7.66481 18.3289 7.74686 18.2469C7.82891 18.1648 7.875 18.0535 7.875 17.9375L7.875 14.2704L12.0085 12.2036C12.0652 12.1753 12.1152 12.1349 12.1548 12.0854C12.1944 12.0359 12.2227 11.9783 12.2379 11.9167C12.253 11.8551 12.2546 11.791 12.2425 11.7287C12.2304 11.6664 12.2049 11.6076 12.1678 11.5561C11.7827 11.025 11.375 9.70638 11.375 8.3125C11.375 4.65675 14.259 0.875 19.0855 0.875C23.5183 0.875 27.125 4.48175 27.125 8.9145C27.125 13.3472 23.5183 16.9531 19.0855 16.9531Z" fill="#EEEEEE"/>
<path d="M20.5625 4.375C18.8738 4.375 17.5 5.74875 17.5 7.4375C17.5 9.12625 18.8738 10.5 20.5625 10.5C22.2512 10.5 23.625 9.12625 23.625 7.4375C23.625 5.74875 22.2512 4.375 20.5625 4.375ZM20.5625 9.625C19.3568 9.625 18.375 8.64325 18.375 7.4375C18.375 6.23175 19.3568 5.25 20.5625 5.25C21.7682 5.25 22.75 6.23175 22.75 7.4375C22.75 8.64325 21.7682 9.625 20.5625 9.625Z" fill="#EEEEEE"/>
</svg>
