<svg width="28" height="28" viewBox="0 0 28 28" fill="none" xmlns="http://www.w3.org/2000/svg">
<path d="M13.9471 0C6.24356 0 0 6.24444 0 13.9479C0 21.6506 6.24356 27.8959 13.9471 27.8959C21.6497 27.8959 27.8941 21.651 27.8941 13.9479C27.8941 6.24444 21.6497 0 13.9471 0ZM13.9471 26.0444C7.20213 26.0444 1.73556 20.5782 1.73556 13.8346C1.73556 7.09144 7.20256 1.62444 13.9471 1.62444C20.6898 1.62444 26.1568 7.09144 26.1568 13.8346C26.1568 20.5782 20.6898 26.0444 13.9471 26.0444Z" fill="#8A82CD"/>
<path d="M14.2464 0.0078125C9.3302 0.0078125 5.34326 6.25181 5.34326 13.9549C5.34326 21.6584 9.3302 27.9024 14.2464 27.9024C19.1652 27.9024 23.1513 21.6584 23.1513 13.9549C23.1513 6.25225 19.1656 0.0078125 14.2464 0.0078125ZM14.2464 26.0522C9.94095 26.0522 6.45276 20.5852 6.45276 13.8424C6.45276 7.09881 9.94095 1.63269 14.2464 1.63269C18.5523 1.63269 22.0422 7.09881 22.0422 13.8424C22.0422 20.5852 18.5523 26.0522 14.2464 26.0522Z" fill="#8A82CD"/>
<path d="M24.0126 5.4564C23.604 5.14446 23.2737 4.69996 23.0742 4.22046C20.835 6.8949 17.4978 8.59108 13.7707 8.59108C10.2357 8.59108 7.05292 7.06596 4.82517 4.62733C4.40298 4.99396 3.95936 5.33871 3.48511 5.62527C6.03879 8.52896 9.75273 10.3564 13.8867 10.3564C18.0119 10.3564 21.7166 8.53683 24.2703 5.64496C24.1828 5.58413 24.0969 5.52111 24.0126 5.45596" fill="#8A82CD"/>
<path d="M13.1426 0.817139H14.7469V26.9578H13.1426V0.817139Z" fill="#8A82CD"/>
<path d="M0.816406 13.0317H26.957V14.636H0.816406V13.0317Z" fill="#8A82CD"/>
<path d="M4.97869 23.4689C7.21519 20.924 10.4684 19.3205 14.0914 19.3205C17.699 19.3205 20.9413 20.9122 23.1769 23.4405C23.5335 23.0052 23.8782 22.5611 24.2506 22.142C21.7004 19.3223 18.0411 17.5557 13.9767 17.5557C9.78156 17.5557 6.01862 19.4374 3.46362 22.4163C3.77356 22.4959 4.05869 22.6517 4.29312 22.8695C4.51537 23.0769 4.74462 23.2769 4.97912 23.4698" fill="#8A82CD"/>
</svg>
