<svg width="24" height="23" viewBox="0 0 24 23" fill="none" xmlns="http://www.w3.org/2000/svg">
<path d="M13.0039 12.8443L13.5528 12.4H12.8466H2.11055C1.78688 12.4 1.48433 12.295 1.26805 12.1192C1.05318 11.9445 0.946045 11.72 0.946045 11.5C0.946045 11.28 1.05318 11.0555 1.26805 10.8808C1.48433 10.705 1.78688 10.6 2.11055 10.6H12.8466H13.5528L13.0039 10.1557L9.75096 7.52252C9.75093 7.52249 9.75089 7.52247 9.75086 7.52244C9.64386 7.43543 9.5624 7.33493 9.50813 7.2284C9.45398 7.12211 9.42726 7.01071 9.42726 6.9C9.42726 6.78929 9.45398 6.67789 9.50813 6.5716C9.56242 6.46503 9.64391 6.36451 9.75096 6.27748C9.85807 6.19039 9.98784 6.11928 10.1338 6.07012C10.2798 6.02097 10.4375 5.99529 10.5975 5.99529C10.7576 5.99529 10.9153 6.02097 11.0613 6.07012C11.2073 6.11928 11.337 6.19039 11.4441 6.27748L17.0999 10.8757C17.2031 10.9637 17.2806 11.0644 17.3312 11.1706L17.3312 11.1706L17.3338 11.1757C17.4394 11.3848 17.4394 11.6152 17.3338 11.8243L17.3337 11.8242L17.3312 11.8294C17.2806 11.9356 17.2031 12.0363 17.0999 12.1243L11.4441 16.7225L11.4434 16.7232C11.3367 16.8106 11.2072 16.882 11.0613 16.9314C10.9155 16.9808 10.7577 17.0067 10.5975 17.0067C10.4374 17.0067 10.2796 16.9808 10.1338 16.9314C9.98787 16.882 9.85837 16.8106 9.75174 16.7231L9.75018 16.7219C9.6426 16.6351 9.56069 16.5348 9.50612 16.4283C9.45169 16.322 9.42484 16.2107 9.42484 16.1C9.42484 15.9893 9.45169 15.878 9.50612 15.7717C9.56069 15.6652 9.6426 15.5649 9.75018 15.4781L9.75054 15.4778L13.0039 12.8443ZM4.93955 0.25H19.0845C20.1585 0.25 21.1806 0.597291 21.9274 1.20446C22.6729 1.81048 23.078 2.61998 23.078 3.45V19.55C23.078 20.38 22.6729 21.1895 21.9274 21.7955C21.1806 22.4027 20.1585 22.75 19.0845 22.75H4.93955C3.86558 22.75 2.84347 22.4027 2.09665 21.7955C1.35124 21.1895 0.946045 20.38 0.946045 19.55V16.1C0.946045 15.88 1.05318 15.6555 1.26805 15.4808C1.48433 15.305 1.78688 15.2 2.11055 15.2C2.43421 15.2 2.73676 15.305 2.95304 15.4808C3.16791 15.6555 3.27505 15.88 3.27505 16.1V19.55C3.27505 19.94 3.46596 20.3005 3.78164 20.5572C4.0959 20.8127 4.51292 20.95 4.93955 20.95H19.0845C19.5112 20.95 19.9282 20.8127 20.2425 20.5572C20.5581 20.3005 20.749 19.94 20.749 19.55V3.45C20.749 3.06002 20.5581 2.69949 20.2425 2.44285C19.9282 2.18735 19.5112 2.05 19.0845 2.05H4.93955C4.51292 2.05 4.0959 2.18735 3.78164 2.44285C3.46596 2.69949 3.27505 3.06002 3.27505 3.45V6.9C3.27505 7.12002 3.16791 7.3445 2.95304 7.51919C2.73676 7.69503 2.43421 7.8 2.11055 7.8C1.78688 7.8 1.48433 7.69503 1.26805 7.51919C1.05318 7.3445 0.946045 7.12002 0.946045 6.9V3.45C0.946045 2.61998 1.35124 1.81048 2.09665 1.20446C2.84347 0.597291 3.86558 0.25 4.93955 0.25Z" fill="#E04244" stroke="#202020" stroke-width="0.5"/>
</svg>
