<svg width="24" height="24" viewBox="0 0 24 24" fill="none" xmlns="http://www.w3.org/2000/svg">
<ellipse rx="3.47149" ry="3.3" transform="matrix(-1 0 0 1 11.987 12)" stroke="#E5E5E5" stroke-width="1.8"/>
<path d="M17.1943 4.23123L17.6273 3.44224V3.44224L17.1943 4.23123ZM17.1943 19.7683L17.6273 20.5573H17.6273L17.1943 19.7683ZM6.77965 19.7684L6.34663 20.5574H6.34664L6.77965 19.7684ZM6.77965 4.23124L7.21267 5.02022L6.77965 4.23124ZM8.43759 2.06824L9.31527 2.26742L8.43759 2.06824ZM9.06268 1.35427L8.84643 0.480632L9.06268 1.35427ZM3.26096 19.2248L2.59764 19.8331L3.26096 19.2248ZM9.06277 22.6458L8.84653 23.5194L9.06277 22.6458ZM8.43765 21.9317L7.55995 22.1308L8.43765 21.9317ZM15.5363 21.9317L14.6586 21.7326L15.5363 21.9317ZM14.9111 22.6458L15.1274 23.5194L14.9111 22.6458ZM20.713 19.2248L21.3763 19.833L20.713 19.2248ZM19.834 19.4401L19.6105 20.3119L19.834 19.4401ZM22.9307 8.41647L22.0845 8.72304L22.9307 8.41647ZM22.5644 9.40997L22.0236 8.69053L22.5644 9.40997ZM1.40956 14.5901L0.868807 13.8706L1.40956 14.5901ZM19.8337 4.55956L20.0572 5.43138L19.8337 4.55956ZM20.7126 4.77487L20.0493 5.38318L20.7126 4.77487ZM3.26126 4.77488L2.59796 4.16657L3.26126 4.77488ZM22.5644 14.5901L22.0236 15.3095L22.5644 14.5901ZM22.9307 15.5835L22.0845 15.277L22.9307 15.5835ZM15.5363 2.06824L16.414 1.86907L15.5363 2.06824ZM14.6587 2.26742C14.9151 3.3976 15.6515 4.41114 16.7613 5.02021L17.6273 3.44224C16.9693 3.08113 16.5565 2.49713 16.414 1.86907L14.6587 2.26742ZM16.7613 5.02021C17.8034 5.59218 18.9875 5.70555 20.0572 5.43138L19.6103 3.68774C18.9609 3.85416 18.2489 3.78339 17.6273 3.44224L16.7613 5.02021ZM23.7768 8.10991C23.2449 6.64174 22.4216 5.30677 21.3759 4.16656L20.0493 5.38318C20.9403 6.35463 21.6363 7.4861 22.0845 8.72304L23.7768 8.10991ZM22.1443 12C22.1443 11.2553 22.5086 10.5777 23.1051 10.1294L22.0236 8.69053C21.0119 9.45098 20.3443 10.6445 20.3443 12H22.1443ZM23.1051 13.8706C22.5086 13.4223 22.1443 12.7447 22.1443 12H20.3443C20.3443 13.3555 21.0119 14.549 22.0236 15.3095L23.1051 13.8706ZM21.3763 19.833C22.4218 18.6929 23.245 17.3581 23.7768 15.8901L22.0845 15.277C21.6364 16.5138 20.9404 17.6451 20.0497 18.6165L21.3763 19.833ZM17.6273 20.5573C18.2489 20.2161 18.9611 20.1454 19.6105 20.3119L20.0575 18.5683C18.9877 18.294 17.8035 18.4073 16.7613 18.9794L17.6273 20.5573ZM16.414 22.1307C16.5564 21.5026 16.9692 20.9185 17.6273 20.5573L16.7613 18.9794C15.6514 19.5885 14.9149 20.6022 14.6586 21.7326L16.414 22.1307ZM11.987 23.9C13.0704 23.9 14.123 23.768 15.1274 23.5194L14.6949 21.7721C13.8312 21.9859 12.9239 22.1 11.987 22.1V23.9ZM8.84653 23.5194C9.85093 23.768 10.9035 23.9 11.987 23.9V22.1C11.05 22.1 10.1427 21.9859 9.27901 21.7721L8.84653 23.5194ZM6.34664 20.5574C7.00468 20.9185 7.41747 21.5026 7.55995 22.1308L9.31536 21.7326C9.05897 20.6023 8.32256 19.5885 7.21267 18.9794L6.34664 20.5574ZM4.36345 20.3119C5.01286 20.1454 5.72498 20.2162 6.34663 20.5574L7.21267 18.9794C6.1704 18.4074 4.98626 18.294 3.91645 18.5683L4.36345 20.3119ZM0.197075 15.8901C0.728933 17.3581 1.55212 18.693 2.59764 19.8331L3.92429 18.6165C3.0335 17.6451 2.33752 16.5138 1.88943 15.277L0.197075 15.8901ZM1.82964 12C1.82964 12.7447 1.46527 13.4223 0.868807 13.8706L1.9503 15.3095C2.96205 14.549 3.62964 13.3555 3.62964 12H1.82964ZM0.868803 10.1294C1.46527 10.5777 1.82964 11.2553 1.82964 12H3.62964C3.62964 10.6445 2.96204 9.45098 1.9503 8.69053L0.868803 10.1294ZM2.59796 4.16657C1.55228 5.30678 0.728978 6.64174 0.197067 8.10991L1.88942 8.72304C2.33756 7.4861 3.03364 6.35464 3.92456 5.38318L2.59796 4.16657ZM6.34663 3.44225C5.72503 3.78341 5.01297 3.85418 4.36361 3.68775L3.91671 5.43139C4.98645 5.70556 6.17049 5.5922 7.21267 5.02022L6.34663 3.44225ZM7.5599 1.86907C7.41738 2.49714 7.00461 3.08114 6.34663 3.44225L7.21267 5.02022C8.32243 4.41115 9.0588 3.3976 9.31527 2.26742L7.5599 1.86907ZM11.987 0.1C10.9035 0.1 9.85086 0.232007 8.84643 0.480632L9.27893 2.2279C10.1426 2.01411 11.05 1.9 11.987 1.9V0.1ZM15.1275 0.480637C14.1231 0.232009 13.0705 0.1 11.987 0.1V1.9C12.9239 1.9 13.8313 2.01411 14.695 2.2279L15.1275 0.480637ZM9.31527 2.26742C9.31996 2.24674 9.3264 2.22895 9.33299 2.21512C9.33961 2.20123 9.3449 2.1944 9.34599 2.1931C9.3469 2.192 9.34226 2.19787 9.32995 2.20595C9.31693 2.2145 9.29927 2.22286 9.27893 2.2279L8.84643 0.480632C8.08126 0.670034 7.68361 1.32393 7.5599 1.86907L9.31527 2.26742ZM1.9503 8.69053C1.93353 8.67792 1.91968 8.66402 1.90953 8.65112C1.89933 8.63815 1.89573 8.62986 1.89537 8.62897C1.89515 8.62841 1.89904 8.63794 1.89981 8.65689C1.90064 8.67714 1.8975 8.70075 1.88942 8.72304L0.197067 8.10991C-0.113844 8.96807 0.355459 9.74356 0.868803 10.1294L1.9503 8.69053ZM3.91645 18.5683C3.90058 18.5724 3.88647 18.5741 3.87547 18.5744C3.86444 18.5747 3.85934 18.5736 3.86009 18.5737C3.86107 18.5739 3.86932 18.5759 3.88215 18.583C3.89557 18.5904 3.91065 18.6017 3.92429 18.6165L2.59764 19.8331C3.10361 20.3848 3.8283 20.4491 4.36345 20.3119L3.91645 18.5683ZM9.27901 21.7721C9.29936 21.7772 9.31702 21.7855 9.33004 21.7941C9.34235 21.8022 9.34699 21.808 9.34607 21.8069C9.34499 21.8056 9.3397 21.7988 9.33308 21.7849C9.32648 21.7711 9.32005 21.7533 9.31536 21.7326L7.55995 22.1308C7.68362 22.676 8.08127 23.33 8.84653 23.5194L9.27901 21.7721ZM14.6586 21.7326C14.6539 21.7533 14.6474 21.7711 14.6408 21.7849C14.6342 21.7988 14.6289 21.8056 14.6278 21.8069C14.6269 21.808 14.6316 21.8022 14.6439 21.7941C14.6569 21.7855 14.6746 21.7772 14.6949 21.7721L15.1274 23.5194C15.8927 23.33 16.2903 22.676 16.414 22.1307L14.6586 21.7326ZM20.0497 18.6165C20.0633 18.6016 20.0784 18.5904 20.0918 18.583C20.1046 18.5759 20.1129 18.5739 20.1139 18.5737C20.1146 18.5735 20.1095 18.5747 20.0985 18.5744C20.0875 18.5741 20.0734 18.5723 20.0575 18.5683L19.6105 20.3119C20.1456 20.4491 20.8703 20.3848 21.3763 19.833L20.0497 18.6165ZM22.0845 8.72304C22.0764 8.70075 22.0733 8.67714 22.0741 8.65689C22.0749 8.63794 22.0788 8.62841 22.0785 8.62897C22.0782 8.62986 22.0746 8.63815 22.0644 8.65112C22.0542 8.66402 22.0404 8.67792 22.0236 8.69053L23.1051 10.1294C23.6184 9.74356 24.0877 8.96807 23.7768 8.10991L22.0845 8.72304ZM1.88943 15.277C1.89751 15.2993 1.90064 15.3229 1.89982 15.3431C1.89905 15.3621 1.89516 15.3716 1.89538 15.3711C1.89574 15.3702 1.89934 15.3619 1.90954 15.3489C1.91968 15.336 1.93353 15.3221 1.9503 15.3095L0.868807 13.8706C0.355463 14.2565 -0.113837 15.032 0.197075 15.8901L1.88943 15.277ZM20.0572 5.43138C20.0731 5.42731 20.0872 5.42558 20.0982 5.42527C20.1092 5.42496 20.1143 5.42614 20.1135 5.42597C20.1126 5.42575 20.1043 5.42378 20.0915 5.41668C20.0781 5.40926 20.063 5.39804 20.0493 5.38318L21.3759 4.16656C20.87 3.6149 20.1454 3.55059 19.6103 3.68774L20.0572 5.43138ZM3.92456 5.38318C3.91093 5.39805 3.89584 5.40926 3.88242 5.41668C3.86959 5.42378 3.86135 5.42576 3.86037 5.42598C3.85961 5.42615 3.86471 5.42497 3.87574 5.42528C3.88674 5.42559 3.90085 5.42732 3.91671 5.43139L4.36361 3.68775C3.8285 3.5506 3.1039 3.6149 2.59796 4.16657L3.92456 5.38318ZM22.0236 15.3095C22.0404 15.3221 22.0542 15.336 22.0644 15.3489C22.0746 15.3619 22.0782 15.3702 22.0785 15.3711C22.0787 15.3716 22.0749 15.3621 22.0741 15.3431C22.0733 15.3229 22.0764 15.2993 22.0845 15.277L23.7768 15.8901C24.0877 15.032 23.6184 14.2565 23.1051 13.8706L22.0236 15.3095ZM16.414 1.86907C16.2903 1.32393 15.8927 0.67004 15.1275 0.480637L14.695 2.2279C14.6746 2.22287 14.657 2.2145 14.644 2.20595C14.6317 2.19787 14.627 2.192 14.6279 2.1931C14.629 2.1944 14.6343 2.20123 14.6409 2.21512C14.6475 2.22896 14.654 2.24675 14.6587 2.26742L16.414 1.86907Z" fill="#E5E5E5"/>
</svg>
