<svg width="28" height="28" viewBox="0 0 28 28" fill="none" xmlns="http://www.w3.org/2000/svg">
<path d="M25.2856 21.6456C24.5356 20.977 23.879 20.2105 23.3334 19.3667C22.7378 18.202 22.3808 16.9301 22.2834 15.6256V11.7834C22.2886 9.73443 21.5453 7.7541 20.1933 6.21448C18.8413 4.67487 16.9737 3.68195 14.9412 3.42228V2.41895C14.9412 2.14357 14.8318 1.87946 14.6371 1.68474C14.4424 1.49001 14.1783 1.38062 13.9029 1.38062C13.6275 1.38062 13.3634 1.49001 13.1687 1.68474C12.9739 1.87946 12.8645 2.14357 12.8645 2.41895V3.43784C10.8503 3.71623 9.00518 4.71515 7.67095 6.24959C6.33671 7.78403 5.60377 9.75001 5.60787 11.7834V15.6256C5.51046 16.9301 5.15347 18.202 4.55787 19.3667C4.02189 20.2086 3.3758 20.975 2.63676 21.6456C2.55379 21.7185 2.4873 21.8082 2.44171 21.9088C2.39611 22.0094 2.37245 22.1185 2.37231 22.229V23.2867C2.37231 23.493 2.45426 23.6908 2.60012 23.8367C2.74598 23.9826 2.94381 24.0645 3.15009 24.0645H24.7723C24.9786 24.0645 25.1764 23.9826 25.3223 23.8367C25.4681 23.6908 25.5501 23.493 25.5501 23.2867V22.229C25.5499 22.1185 25.5263 22.0094 25.4807 21.9088C25.4351 21.8082 25.3686 21.7185 25.2856 21.6456ZM3.99009 22.509C4.71374 21.8099 5.35089 21.0265 5.88787 20.1756C6.63812 18.769 7.07587 17.217 7.1712 15.6256V11.7834C7.14036 10.8719 7.29326 9.96345 7.62079 9.11225C7.94833 8.26104 8.44381 7.48445 9.07773 6.82872C9.71165 6.17299 10.471 5.65152 11.3107 5.29538C12.1503 4.93924 13.053 4.75571 13.9651 4.75571C14.8771 4.75571 15.7799 4.93924 16.6195 5.29538C17.4591 5.65152 18.2185 6.17299 18.8525 6.82872C19.4864 7.48445 19.9819 8.26104 20.3094 9.11225C20.6369 9.96345 20.7898 10.8719 20.759 11.7834V15.6256C20.8543 17.217 21.2921 18.769 22.0423 20.1756C22.5793 21.0265 23.2164 21.8099 23.9401 22.509H3.99009Z" fill="#FDAC32"/>
<path d="M14 26.6622C14.4899 26.651 14.9601 26.4668 15.3273 26.1422C15.6946 25.8177 15.9352 25.3738 16.0066 24.8889H11.9155C11.989 25.3869 12.2409 25.8413 12.6243 26.1675C13.0077 26.4937 13.4966 26.6695 14 26.6622Z" fill="#FDAC32"/>
</svg>
