<svg width="26" height="24" viewBox="0 0 26 24" fill="none" xmlns="http://www.w3.org/2000/svg">
<ellipse rx="4.11425" ry="4.31015" transform="matrix(-1 0 0 1 13.2572 5.31015)" stroke="#E5E5E5" stroke-width="1.8"/>
<path d="M6 16.2408C6 15.6715 6.31025 15.1473 6.8094 14.8734V14.8734C10.6653 12.7575 15.3347 12.7575 19.1906 14.8734V14.8734C19.6898 15.1473 20 15.6715 20 16.2408V20.8819C20 21.97 18.9939 22.7792 17.9311 22.546V22.546C14.6824 21.8329 11.3176 21.8329 8.06895 22.546V22.546C7.00613 22.7792 6 21.97 6 20.8819V16.2408Z" stroke="#E5E5E5" stroke-width="1.8"/>
<path d="M19.4284 9.73965C21.2137 9.73965 22.661 8.22344 22.661 6.3531C22.661 4.48276 21.2137 2.96655 19.4284 2.96655" stroke="#E5E5E5" stroke-width="1.8" stroke-linecap="round"/>
<path d="M22.942 19.7619L23.2499 19.832C24.1735 20.0422 24.9999 18.9005 24.9999 17.4141V15.7675C24.9999 14.6906 24.5749 13.73 23.9383 13.3678C23.3033 13.0065 22.6552 12.7251 21.9999 12.5237" stroke="#E5E5E5" stroke-width="1.8" stroke-linecap="round"/>
<path d="M6.57149 9.73965C4.78616 9.73965 3.33887 8.22344 3.33887 6.3531C3.33887 4.48276 4.78616 2.96655 6.57149 2.96655" stroke="#E5E5E5" stroke-width="1.8" stroke-linecap="round"/>
<path d="M3.05789 19.7619L2.74995 19.832C1.82634 20.0422 1 18.9005 1 17.4141V15.7675C1 14.6906 1.42496 13.73 2.06157 13.3678C2.6966 13.0065 3.34467 12.7251 4 12.5237" stroke="#E5E5E5" stroke-width="1.8" stroke-linecap="round"/>
</svg>
