<svg width="84" height="84" viewBox="0 0 84 84" fill="none" xmlns="http://www.w3.org/2000/svg">
<path d="M42 84C30.8609 84 20.178 79.575 12.3015 71.6985C4.42499 63.822 0 53.1391 0 42C0 30.8609 4.42499 20.178 12.3015 12.3015C20.178 4.42499 30.8609 0 42 0C53.1391 0 63.822 4.42499 71.6985 12.3015C79.575 20.178 84 30.8609 84 42C84 53.1391 79.575 63.822 71.6985 71.6985C63.822 79.575 53.1391 84 42 84ZM29.4 25.2V33.6C29.4 36.9417 30.7275 40.1466 33.0905 42.5095C35.4534 44.8725 38.6583 46.2 42 46.2C45.3417 46.2 48.5466 44.8725 50.9095 42.5095C53.2725 40.1466 54.6 36.9417 54.6 33.6V25.2C54.6 21.8583 53.2725 18.6534 50.9095 16.2905C48.5466 13.9275 45.3417 12.6 42 12.6C38.6583 12.6 35.4534 13.9275 33.0905 16.2905C30.7275 18.6534 29.4 21.8583 29.4 25.2ZM14.07 60.648C17.1404 65.2392 21.2953 69.0028 26.1669 71.6055C31.0386 74.2082 36.4767 75.5698 42 75.5698C47.5233 75.5698 52.9614 74.2082 57.8331 71.6055C62.7047 69.0028 66.8596 65.2392 69.93 60.648C61.1681 56.6259 51.6409 54.5436 42 54.5436C32.3591 54.5436 22.8319 56.6259 14.07 60.648Z" fill="#B8B8B8"/>
</svg>
